<svg xmlns="http://www.w3.org/2000/svg" version="1.1" viewBox="-5.0 -10.0 110.0 135.0">
 <path d="m60.102 47.398c6.5-3.5977 10.898-10.5 10.898-18.398 0-11.602-9.3984-21-21-21s-21 9.3984-21 21c0 7.8984 4.3984 14.801 10.898 18.398-15.5 4.4023-26.898 18.703-26.898 35.602 0 2.5 0.19922 5 0.69922 7.3984 0.19922 0.89844 1 1.6016 2 1.6016h68.602c1 0 1.8008-0.69922 2-1.6016 0.5-2.3984 0.69922-4.8984 0.69922-7.3984 0-16.898-11.398-31.199-26.898-35.602zm-27.102-18.398c0-9.3984 7.6016-17 17-17s17 7.6016 17 17-7.6016 17-17 17-17-7.6016-17-17zm49.602 59h-65.203c-0.30078-1.6016-0.39844-3.3008-0.39844-5 0-18.199 14.801-33 33-33s33 14.801 33 33c0 1.6992-0.10156 3.3984-0.39844 5z"/>
<text x="0.0" y="117.5" font-size="5.0" font-weight="bold" font-family="Arbeit Regular, Helvetica, Arial-Unicode, Arial, Sans-serif" fill="#000000">Created by wahyu arif nur</text><text x="0.0" y="122.5" font-size="5.0" font-weight="bold" font-family="Arbeit Regular, Helvetica, Arial-Unicode, Arial, Sans-serif" fill="#000000">from Noun Project</text></svg>